<mxfile host="app.diagrams.net" modified="2023-06-06T23:37:14.136Z" agent="Mozilla/5.0 (Macintosh; Intel Mac OS X 10_15_7) AppleWebKit/605.1.15 (KHTML, like Gecko) Version/16.4 Safari/605.1.15" version="21.3.7" etag="6azBYEB1JGgRJx0bMBQG" type="github">
  <diagram name="Page-1" id="WuvxMVtMMSh4RpOi0JvP">
    <mxGraphModel>
      <root>
        <mxCell id="0" />
        <mxCell id="1" parent="0" />
      </root>
    </mxGraphModel>
  </diagram>
</mxfile>
